<svg width="470" height="470" viewBox="0 0 470 470" fill="none" xmlns="http://www.w3.org/2000/svg">
<g clip-path="url(#clip0_25_202)">
<rect width="470" height="470" rx="235" fill="#0F0F0F"/>
<g filter="url(#filter0_f_25_202)">
<path d="M26.2201 110.787L249.523 230.119L-42.8633 354.369L26.2201 110.787Z" fill="white" fill-opacity="0.19"/>
</g>
<g filter="url(#filter1_f_25_202)">
<path d="M436.623 101.736L213.319 221.067L505.706 345.317L436.623 101.736Z" fill="white" fill-opacity="0.19"/>
</g>
<g filter="url(#filter2_f_25_202)">
<circle cx="236" cy="235" r="228.75" stroke="black" stroke-width="0.5"/>
</g>
<g filter="url(#filter3_f_25_202)">
<circle cx="236.5" cy="235.5" r="226.25" stroke="black" stroke-width="0.5"/>
</g>
<g filter="url(#filter4_f_25_202)">
<circle cx="236" cy="235" r="222.75" stroke="black" stroke-width="0.5"/>
</g>
<g filter="url(#filter5_f_25_202)">
<path d="M236 18.25C356.261 18.25 453.75 115.293 453.75 235C453.75 354.707 356.261 451.75 236 451.75C115.739 451.75 18.25 354.707 18.25 235C18.25 115.293 115.739 18.25 236 18.25Z" stroke="black" stroke-width="0.5"/>
</g>
<g filter="url(#filter6_f_25_202)">
<path d="M236 23.25C353.5 23.25 448.75 118.055 448.75 235C448.75 351.945 353.5 446.75 236 446.75C118.5 446.75 23.25 351.945 23.25 235C23.25 118.055 118.5 23.25 236 23.25Z" stroke="black" stroke-width="0.5"/>
</g>
<g filter="url(#filter7_f_25_202)">
<path d="M236 28.25C350.738 28.25 443.75 120.816 443.75 235C443.75 349.184 350.738 441.75 236 441.75C121.262 441.75 28.25 349.184 28.25 235C28.25 120.816 121.262 28.25 236 28.25Z" stroke="black" stroke-width="0.5"/>
</g>
<g filter="url(#filter8_f_25_202)">
<path d="M236 30.25C349.634 30.25 441.75 121.921 441.75 235C441.75 348.079 349.634 439.75 236 439.75C122.366 439.75 30.25 348.079 30.25 235C30.25 121.921 122.366 30.25 236 30.25Z" stroke="black" stroke-width="0.5"/>
</g>
<g filter="url(#filter9_f_25_202)">
<path d="M236.5 35.25C347.648 35.25 437.75 124.906 437.75 235.5C437.75 346.094 347.648 435.75 236.5 435.75C125.352 435.75 35.25 346.094 35.25 235.5C35.25 124.906 125.352 35.25 236.5 35.25Z" stroke="black" stroke-width="0.5"/>
</g>
<g filter="url(#filter10_f_25_202)">
<path d="M236 39.25C344.663 39.25 432.75 126.891 432.75 235C432.75 343.109 344.663 430.75 236 430.75C127.337 430.75 39.25 343.109 39.25 235C39.25 126.891 127.337 39.25 236 39.25Z" stroke="black" stroke-width="0.5"/>
</g>
<g filter="url(#filter11_f_25_202)">
<path d="M236 44.25C341.902 44.25 427.75 129.653 427.75 235C427.75 340.347 341.902 425.75 236 425.75C130.098 425.75 44.25 340.347 44.25 235C44.25 129.653 130.098 44.25 236 44.25Z" stroke="black" stroke-width="0.5"/>
</g>
<g filter="url(#filter12_f_25_202)">
<path d="M236.5 49.25C339.917 49.25 423.75 132.638 423.75 235.5C423.75 338.362 339.917 421.75 236.5 421.75C133.083 421.75 49.25 338.362 49.25 235.5C49.25 132.638 133.083 49.25 236.5 49.25Z" stroke="black" stroke-width="0.5"/>
</g>
<g filter="url(#filter13_f_25_202)">
<path d="M236.5 55.25C336.603 55.25 417.75 135.952 417.75 235.5C417.75 335.048 336.603 415.75 236.5 415.75C136.397 415.75 55.25 335.048 55.25 235.5C55.25 135.952 136.397 55.25 236.5 55.25Z" stroke="black" stroke-width="0.5"/>
</g>
<g filter="url(#filter14_f_25_202)">
<path d="M236.5 60.25C333.842 60.25 412.75 138.713 412.75 235.5C412.75 332.287 333.842 410.75 236.5 410.75C139.158 410.75 60.25 332.287 60.25 235.5C60.25 138.713 139.158 60.25 236.5 60.25Z" stroke="black" stroke-width="0.5"/>
</g>
<g filter="url(#filter15_f_25_202)">
<path d="M236 65.25C330.304 65.25 406.75 141.251 406.75 235C406.75 328.749 330.304 404.75 236 404.75C141.696 404.75 65.25 328.749 65.25 235C65.25 141.251 141.696 65.25 236 65.25Z" stroke="black" stroke-width="0.5"/>
</g>
<g filter="url(#filter16_f_25_202)">
<path d="M236 70.25C327.543 70.25 401.75 144.013 401.75 235C401.75 325.987 327.543 399.75 236 399.75C144.457 399.75 70.25 325.987 70.25 235C70.25 144.013 144.457 70.25 236 70.25Z" stroke="black" stroke-width="0.5"/>
</g>
<g filter="url(#filter17_f_25_202)">
<path d="M236.5 75.25C325.557 75.25 397.75 146.998 397.75 235.5C397.75 324.002 325.557 395.75 236.5 395.75C147.443 395.75 75.25 324.002 75.25 235.5C75.25 146.998 147.443 75.25 236.5 75.25Z" stroke="black" stroke-width="0.5"/>
</g>
<g filter="url(#filter18_f_25_202)">
<path d="M236.5 80.25C322.796 80.25 392.75 149.759 392.75 235.5C392.75 321.241 322.796 390.75 236.5 390.75C150.204 390.75 80.25 321.241 80.25 235.5C80.25 149.759 150.204 80.25 236.5 80.25Z" stroke="black" stroke-width="0.5"/>
</g>
<g filter="url(#filter19_f_25_202)">
<path d="M236.5 85.25C320.035 85.25 387.75 152.521 387.75 235.5C387.75 318.479 320.035 385.75 236.5 385.75C152.965 385.75 85.25 318.479 85.25 235.5C85.25 152.521 152.965 85.25 236.5 85.25Z" stroke="black" stroke-width="0.5"/>
</g>
<g filter="url(#filter20_f_25_202)">
<path d="M236 89.25C317.049 89.25 382.75 154.506 382.75 235C382.75 315.494 317.049 380.75 236 380.75C154.951 380.75 89.25 315.494 89.25 235C89.25 154.506 154.951 89.25 236 89.25Z" stroke="black" stroke-width="0.5"/>
</g>
<g filter="url(#filter21_f_25_202)">
<path d="M236 94.25C314.288 94.25 377.75 157.268 377.75 235C377.75 312.732 314.288 375.75 236 375.75C157.712 375.75 94.25 312.732 94.25 235C94.25 157.268 157.712 94.25 236 94.25Z" stroke="black" stroke-width="0.5"/>
</g>
<g filter="url(#filter22_f_25_202)">
<path d="M236.5 99.25C312.303 99.25 373.75 160.253 373.75 235.5C373.75 310.747 312.303 371.75 236.5 371.75C160.697 371.75 99.25 310.747 99.25 235.5C99.25 160.253 160.697 99.25 236.5 99.25Z" stroke="black" stroke-width="0.5"/>
</g>
<g filter="url(#filter23_f_25_202)">
<path d="M236 104.25C308.765 104.25 367.75 162.791 367.75 235C367.75 307.209 308.765 365.75 236 365.75C163.235 365.75 104.25 307.209 104.25 235C104.25 162.791 163.235 104.25 236 104.25Z" stroke="black" stroke-width="0.5"/>
</g>
<g filter="url(#filter24_f_25_202)">
<path d="M236.5 110.25C306.228 110.25 362.75 166.328 362.75 235.5C362.75 304.672 306.228 360.75 236.5 360.75C166.772 360.75 110.25 304.672 110.25 235.5C110.25 166.328 166.772 110.25 236.5 110.25Z" stroke="black" stroke-width="0.5"/>
</g>
<g filter="url(#filter25_f_25_202)">
<path d="M236.5 114.25C304.019 114.25 358.75 168.537 358.75 235.5C358.75 302.463 304.019 356.75 236.5 356.75C168.981 356.75 114.25 302.463 114.25 235.5C114.25 168.537 168.981 114.25 236.5 114.25Z" stroke="black" stroke-width="0.5"/>
</g>
<g filter="url(#filter26_f_25_202)">
<path d="M236.5 119.25C301.257 119.25 353.75 171.299 353.75 235.5C353.75 299.701 301.257 351.75 236.5 351.75C171.743 351.75 119.25 299.701 119.25 235.5C119.25 171.299 171.743 119.25 236.5 119.25Z" stroke="black" stroke-width="0.5"/>
</g>
<g filter="url(#filter27_f_25_202)">
<path d="M236 124.25C297.72 124.25 347.75 173.837 347.75 235C347.75 296.163 297.72 345.75 236 345.75C174.28 345.75 124.25 296.163 124.25 235C124.25 173.837 174.28 124.25 236 124.25Z" stroke="black" stroke-width="0.5"/>
</g>
<g filter="url(#filter28_f_25_202)">
<path d="M236 129.25C294.959 129.25 342.75 176.598 342.75 235C342.75 293.402 294.959 340.75 236 340.75C177.041 340.75 129.25 293.402 129.25 235C129.25 176.598 177.041 129.25 236 129.25Z" stroke="black" stroke-width="0.5"/>
</g>
<g filter="url(#filter29_f_25_202)">
<path d="M236.5 134.25C292.973 134.25 338.75 179.583 338.75 235.5C338.75 291.417 292.973 336.75 236.5 336.75C180.027 336.75 134.25 291.417 134.25 235.5C134.25 179.583 180.027 134.25 236.5 134.25Z" stroke="black" stroke-width="0.5"/>
</g>
<g filter="url(#filter30_f_25_202)">
<path d="M236.5 139.25C290.212 139.25 333.75 182.345 333.75 235.5C333.75 288.655 290.212 331.75 236.5 331.75C182.788 331.75 139.25 288.655 139.25 235.5C139.25 182.345 182.788 139.25 236.5 139.25Z" stroke="black" stroke-width="0.5"/>
</g>
</g>
<defs>
<filter id="filter0_f_25_202" x="-83.8633" y="69.7876" width="374.387" height="325.581" filterUnits="userSpaceOnUse" color-interpolation-filters="sRGB">
<feFlood flood-opacity="0" result="BackgroundImageFix"/>
<feBlend mode="normal" in="SourceGraphic" in2="BackgroundImageFix" result="shape"/>
<feGaussianBlur stdDeviation="20.5" result="effect1_foregroundBlur_25_202"/>
</filter>
<filter id="filter1_f_25_202" x="172.319" y="60.7358" width="374.387" height="325.581" filterUnits="userSpaceOnUse" color-interpolation-filters="sRGB">
<feFlood flood-opacity="0" result="BackgroundImageFix"/>
<feBlend mode="normal" in="SourceGraphic" in2="BackgroundImageFix" result="shape"/>
<feGaussianBlur stdDeviation="20.5" result="effect1_foregroundBlur_25_202"/>
</filter>
<filter id="filter2_f_25_202" x="5.1" y="4.1" width="461.8" height="461.8" filterUnits="userSpaceOnUse" color-interpolation-filters="sRGB">
<feFlood flood-opacity="0" result="BackgroundImageFix"/>
<feBlend mode="normal" in="SourceGraphic" in2="BackgroundImageFix" result="shape"/>
<feGaussianBlur stdDeviation="0.95" result="effect1_foregroundBlur_25_202"/>
</filter>
<filter id="filter3_f_25_202" x="8.1" y="7.1" width="456.8" height="456.8" filterUnits="userSpaceOnUse" color-interpolation-filters="sRGB">
<feFlood flood-opacity="0" result="BackgroundImageFix"/>
<feBlend mode="normal" in="SourceGraphic" in2="BackgroundImageFix" result="shape"/>
<feGaussianBlur stdDeviation="0.95" result="effect1_foregroundBlur_25_202"/>
</filter>
<filter id="filter4_f_25_202" x="11.1" y="10.1" width="449.8" height="449.8" filterUnits="userSpaceOnUse" color-interpolation-filters="sRGB">
<feFlood flood-opacity="0" result="BackgroundImageFix"/>
<feBlend mode="normal" in="SourceGraphic" in2="BackgroundImageFix" result="shape"/>
<feGaussianBlur stdDeviation="0.95" result="effect1_foregroundBlur_25_202"/>
</filter>
<filter id="filter5_f_25_202" x="16.1" y="16.1" width="439.8" height="437.8" filterUnits="userSpaceOnUse" color-interpolation-filters="sRGB">
<feFlood flood-opacity="0" result="BackgroundImageFix"/>
<feBlend mode="normal" in="SourceGraphic" in2="BackgroundImageFix" result="shape"/>
<feGaussianBlur stdDeviation="0.95" result="effect1_foregroundBlur_25_202"/>
</filter>
<filter id="filter6_f_25_202" x="21.1" y="21.1" width="429.8" height="427.8" filterUnits="userSpaceOnUse" color-interpolation-filters="sRGB">
<feFlood flood-opacity="0" result="BackgroundImageFix"/>
<feBlend mode="normal" in="SourceGraphic" in2="BackgroundImageFix" result="shape"/>
<feGaussianBlur stdDeviation="0.95" result="effect1_foregroundBlur_25_202"/>
</filter>
<filter id="filter7_f_25_202" x="26.1" y="26.1" width="419.8" height="417.8" filterUnits="userSpaceOnUse" color-interpolation-filters="sRGB">
<feFlood flood-opacity="0" result="BackgroundImageFix"/>
<feBlend mode="normal" in="SourceGraphic" in2="BackgroundImageFix" result="shape"/>
<feGaussianBlur stdDeviation="0.95" result="effect1_foregroundBlur_25_202"/>
</filter>
<filter id="filter8_f_25_202" x="28.1" y="28.1" width="415.8" height="413.8" filterUnits="userSpaceOnUse" color-interpolation-filters="sRGB">
<feFlood flood-opacity="0" result="BackgroundImageFix"/>
<feBlend mode="normal" in="SourceGraphic" in2="BackgroundImageFix" result="shape"/>
<feGaussianBlur stdDeviation="0.95" result="effect1_foregroundBlur_25_202"/>
</filter>
<filter id="filter9_f_25_202" x="33.1" y="33.1" width="406.8" height="404.8" filterUnits="userSpaceOnUse" color-interpolation-filters="sRGB">
<feFlood flood-opacity="0" result="BackgroundImageFix"/>
<feBlend mode="normal" in="SourceGraphic" in2="BackgroundImageFix" result="shape"/>
<feGaussianBlur stdDeviation="0.95" result="effect1_foregroundBlur_25_202"/>
</filter>
<filter id="filter10_f_25_202" x="37.1" y="37.1" width="397.8" height="395.8" filterUnits="userSpaceOnUse" color-interpolation-filters="sRGB">
<feFlood flood-opacity="0" result="BackgroundImageFix"/>
<feBlend mode="normal" in="SourceGraphic" in2="BackgroundImageFix" result="shape"/>
<feGaussianBlur stdDeviation="0.95" result="effect1_foregroundBlur_25_202"/>
</filter>
<filter id="filter11_f_25_202" x="42.1" y="42.1" width="387.8" height="385.8" filterUnits="userSpaceOnUse" color-interpolation-filters="sRGB">
<feFlood flood-opacity="0" result="BackgroundImageFix"/>
<feBlend mode="normal" in="SourceGraphic" in2="BackgroundImageFix" result="shape"/>
<feGaussianBlur stdDeviation="0.95" result="effect1_foregroundBlur_25_202"/>
</filter>
<filter id="filter12_f_25_202" x="47.1" y="47.1" width="378.8" height="376.8" filterUnits="userSpaceOnUse" color-interpolation-filters="sRGB">
<feFlood flood-opacity="0" result="BackgroundImageFix"/>
<feBlend mode="normal" in="SourceGraphic" in2="BackgroundImageFix" result="shape"/>
<feGaussianBlur stdDeviation="0.95" result="effect1_foregroundBlur_25_202"/>
</filter>
<filter id="filter13_f_25_202" x="53.1" y="53.1" width="366.8" height="364.8" filterUnits="userSpaceOnUse" color-interpolation-filters="sRGB">
<feFlood flood-opacity="0" result="BackgroundImageFix"/>
<feBlend mode="normal" in="SourceGraphic" in2="BackgroundImageFix" result="shape"/>
<feGaussianBlur stdDeviation="0.95" result="effect1_foregroundBlur_25_202"/>
</filter>
<filter id="filter14_f_25_202" x="58.1" y="58.1" width="356.8" height="354.8" filterUnits="userSpaceOnUse" color-interpolation-filters="sRGB">
<feFlood flood-opacity="0" result="BackgroundImageFix"/>
<feBlend mode="normal" in="SourceGraphic" in2="BackgroundImageFix" result="shape"/>
<feGaussianBlur stdDeviation="0.95" result="effect1_foregroundBlur_25_202"/>
</filter>
<filter id="filter15_f_25_202" x="63.1" y="63.1" width="345.8" height="343.8" filterUnits="userSpaceOnUse" color-interpolation-filters="sRGB">
<feFlood flood-opacity="0" result="BackgroundImageFix"/>
<feBlend mode="normal" in="SourceGraphic" in2="BackgroundImageFix" result="shape"/>
<feGaussianBlur stdDeviation="0.95" result="effect1_foregroundBlur_25_202"/>
</filter>
<filter id="filter16_f_25_202" x="68.1" y="68.1" width="335.8" height="333.8" filterUnits="userSpaceOnUse" color-interpolation-filters="sRGB">
<feFlood flood-opacity="0" result="BackgroundImageFix"/>
<feBlend mode="normal" in="SourceGraphic" in2="BackgroundImageFix" result="shape"/>
<feGaussianBlur stdDeviation="0.95" result="effect1_foregroundBlur_25_202"/>
</filter>
<filter id="filter17_f_25_202" x="73.1" y="73.1" width="326.8" height="324.8" filterUnits="userSpaceOnUse" color-interpolation-filters="sRGB">
<feFlood flood-opacity="0" result="BackgroundImageFix"/>
<feBlend mode="normal" in="SourceGraphic" in2="BackgroundImageFix" result="shape"/>
<feGaussianBlur stdDeviation="0.95" result="effect1_foregroundBlur_25_202"/>
</filter>
<filter id="filter18_f_25_202" x="78.1" y="78.1" width="316.8" height="314.8" filterUnits="userSpaceOnUse" color-interpolation-filters="sRGB">
<feFlood flood-opacity="0" result="BackgroundImageFix"/>
<feBlend mode="normal" in="SourceGraphic" in2="BackgroundImageFix" result="shape"/>
<feGaussianBlur stdDeviation="0.95" result="effect1_foregroundBlur_25_202"/>
</filter>
<filter id="filter19_f_25_202" x="83.1" y="83.1" width="306.8" height="304.8" filterUnits="userSpaceOnUse" color-interpolation-filters="sRGB">
<feFlood flood-opacity="0" result="BackgroundImageFix"/>
<feBlend mode="normal" in="SourceGraphic" in2="BackgroundImageFix" result="shape"/>
<feGaussianBlur stdDeviation="0.95" result="effect1_foregroundBlur_25_202"/>
</filter>
<filter id="filter20_f_25_202" x="87.1" y="87.1" width="297.8" height="295.8" filterUnits="userSpaceOnUse" color-interpolation-filters="sRGB">
<feFlood flood-opacity="0" result="BackgroundImageFix"/>
<feBlend mode="normal" in="SourceGraphic" in2="BackgroundImageFix" result="shape"/>
<feGaussianBlur stdDeviation="0.95" result="effect1_foregroundBlur_25_202"/>
</filter>
<filter id="filter21_f_25_202" x="92.1" y="92.1" width="287.8" height="285.8" filterUnits="userSpaceOnUse" color-interpolation-filters="sRGB">
<feFlood flood-opacity="0" result="BackgroundImageFix"/>
<feBlend mode="normal" in="SourceGraphic" in2="BackgroundImageFix" result="shape"/>
<feGaussianBlur stdDeviation="0.95" result="effect1_foregroundBlur_25_202"/>
</filter>
<filter id="filter22_f_25_202" x="97.1" y="97.1" width="278.8" height="276.8" filterUnits="userSpaceOnUse" color-interpolation-filters="sRGB">
<feFlood flood-opacity="0" result="BackgroundImageFix"/>
<feBlend mode="normal" in="SourceGraphic" in2="BackgroundImageFix" result="shape"/>
<feGaussianBlur stdDeviation="0.95" result="effect1_foregroundBlur_25_202"/>
</filter>
<filter id="filter23_f_25_202" x="102.1" y="102.1" width="267.8" height="265.8" filterUnits="userSpaceOnUse" color-interpolation-filters="sRGB">
<feFlood flood-opacity="0" result="BackgroundImageFix"/>
<feBlend mode="normal" in="SourceGraphic" in2="BackgroundImageFix" result="shape"/>
<feGaussianBlur stdDeviation="0.95" result="effect1_foregroundBlur_25_202"/>
</filter>
<filter id="filter24_f_25_202" x="108.1" y="108.1" width="256.8" height="254.8" filterUnits="userSpaceOnUse" color-interpolation-filters="sRGB">
<feFlood flood-opacity="0" result="BackgroundImageFix"/>
<feBlend mode="normal" in="SourceGraphic" in2="BackgroundImageFix" result="shape"/>
<feGaussianBlur stdDeviation="0.95" result="effect1_foregroundBlur_25_202"/>
</filter>
<filter id="filter25_f_25_202" x="112.1" y="112.1" width="248.8" height="246.8" filterUnits="userSpaceOnUse" color-interpolation-filters="sRGB">
<feFlood flood-opacity="0" result="BackgroundImageFix"/>
<feBlend mode="normal" in="SourceGraphic" in2="BackgroundImageFix" result="shape"/>
<feGaussianBlur stdDeviation="0.95" result="effect1_foregroundBlur_25_202"/>
</filter>
<filter id="filter26_f_25_202" x="117.1" y="117.1" width="238.8" height="236.8" filterUnits="userSpaceOnUse" color-interpolation-filters="sRGB">
<feFlood flood-opacity="0" result="BackgroundImageFix"/>
<feBlend mode="normal" in="SourceGraphic" in2="BackgroundImageFix" result="shape"/>
<feGaussianBlur stdDeviation="0.95" result="effect1_foregroundBlur_25_202"/>
</filter>
<filter id="filter27_f_25_202" x="122.1" y="122.1" width="227.8" height="225.8" filterUnits="userSpaceOnUse" color-interpolation-filters="sRGB">
<feFlood flood-opacity="0" result="BackgroundImageFix"/>
<feBlend mode="normal" in="SourceGraphic" in2="BackgroundImageFix" result="shape"/>
<feGaussianBlur stdDeviation="0.95" result="effect1_foregroundBlur_25_202"/>
</filter>
<filter id="filter28_f_25_202" x="127.1" y="127.1" width="217.8" height="215.8" filterUnits="userSpaceOnUse" color-interpolation-filters="sRGB">
<feFlood flood-opacity="0" result="BackgroundImageFix"/>
<feBlend mode="normal" in="SourceGraphic" in2="BackgroundImageFix" result="shape"/>
<feGaussianBlur stdDeviation="0.95" result="effect1_foregroundBlur_25_202"/>
</filter>
<filter id="filter29_f_25_202" x="132.1" y="132.1" width="208.8" height="206.8" filterUnits="userSpaceOnUse" color-interpolation-filters="sRGB">
<feFlood flood-opacity="0" result="BackgroundImageFix"/>
<feBlend mode="normal" in="SourceGraphic" in2="BackgroundImageFix" result="shape"/>
<feGaussianBlur stdDeviation="0.95" result="effect1_foregroundBlur_25_202"/>
</filter>
<filter id="filter30_f_25_202" x="137.1" y="137.1" width="198.8" height="196.8" filterUnits="userSpaceOnUse" color-interpolation-filters="sRGB">
<feFlood flood-opacity="0" result="BackgroundImageFix"/>
<feBlend mode="normal" in="SourceGraphic" in2="BackgroundImageFix" result="shape"/>
<feGaussianBlur stdDeviation="0.95" result="effect1_foregroundBlur_25_202"/>
</filter>
<clipPath id="clip0_25_202">
<rect width="470" height="470" rx="235" fill="white"/>
</clipPath>
</defs>
</svg>
